<svg xmlns="http://www.w3.org/2000/svg" height="8" viewBox="0 0 570 112"><g fill="none" fill-rule="evenodd" stroke="none" stroke-width="1"><g fill="#000" fill-rule="nonzero" transform="translate(-829 -1873)"><g transform="translate(829.422 1873.827)"><g transform="translate(.628 .958)"><path d="M558.81 22.461l-17.08-9.774-17.328-9.923C512.95-3.8 498.634 4.443 498.634 17.673v2.221c0 1.234.641 2.37 1.728 2.962l8.046 4.59c2.221 1.284 4.986-.345 4.986-2.912v-5.282c0-2.616 2.814-4.245 5.084-2.962l15.797 9.084 15.748 9.033c2.27 1.284 2.27 4.591 0 5.875l-15.748 9.033-15.797 9.084c-2.27 1.283-5.084-.346-5.084-2.962V52.82c0-13.23-14.316-21.523-25.769-14.908l-17.327 9.922-17.08 9.775c-11.502 6.615-11.502 23.25 0 29.865l17.08 9.775 17.327 9.922c11.453 6.565 25.769-1.678 25.769-14.908V90.04c0-1.234-.642-2.37-1.728-2.962l-8.046-4.59c-2.222-1.284-4.986.345-4.986 2.912v5.282c0 2.616-2.814 4.245-5.085 2.962l-15.797-9.083-15.747-9.034c-2.27-1.283-2.27-4.59 0-5.874l15.747-9.034 15.797-9.083c2.271-1.284 5.085.345 5.085 2.962v2.616c0 13.23 14.316 21.523 25.768 14.908l17.327-9.922 17.08-9.774c11.502-6.665 11.502-23.251 0-29.866z"></path><path d="M446.751361 25.7190563L406.76588 108.306352 390.17931 108.306352 405.136842 77.4533575 381.589837 25.7190563 398.62069 25.7190563 413.726316 60.3731397 430.214156 25.7190563z"></path><g transform="translate(0 1.48)"><path d="M46.946 53.56c0-9.872-7.158-16.783-15.945-16.783-8.787 0-15.945 7.059-15.945 16.784 0 9.626 7.158 16.784 15.945 16.784 8.787 0 15.945-6.911 15.945-16.784m.148 29.322v-7.602c-4.344 5.282-10.81 8.54-18.512 8.54C12.49 83.821.296 70.937.296 53.561c0-17.229 12.687-30.36 28.632-30.36 7.503 0 13.822 3.308 18.166 8.442v-7.405h14.415v58.645H47.094z"></path><path d="M131.607 69.851c-5.036 0-6.467-1.876-6.467-6.812V37.024h9.28V24.238h-9.28V9.922h-14.76v14.316H91.325v-5.825c0-4.936 1.876-6.812 7.059-6.812h3.258V.247h-7.108c-12.194 0-17.97 3.998-17.97 16.191v7.85H68.37v12.736h8.195v45.86h14.76v-45.86h19.055v28.73c0 11.946 4.59 17.13 16.537 17.13h7.602V69.85h-2.912z"></path><path d="M184.624 48.279c-1.036-7.602-7.256-12.193-14.562-12.193-7.257 0-13.28 4.442-14.76 12.193h29.322zm-29.47 9.132c1.036 8.688 7.256 13.625 15.155 13.625 6.22 0 11.008-2.913 13.822-7.602h15.155c-3.505 12.44-14.662 20.387-29.323 20.387-17.722 0-30.162-12.44-30.162-30.161 0-17.722 13.131-30.508 30.508-30.508 17.475 0 30.161 12.884 30.161 30.508 0 1.283-.098 2.566-.345 3.751h-44.971zM294.461 53.56c0-9.477-7.158-16.783-15.945-16.783-8.787 0-15.945 7.059-15.945 16.784 0 9.626 7.158 16.784 15.945 16.784 8.787 0 15.945-7.257 15.945-16.784m-46.452 53.264V24.238h14.414v7.602c4.344-5.38 10.811-8.688 18.512-8.688 15.846 0 28.286 13.032 28.286 30.26 0 17.229-12.687 30.36-28.632 30.36-7.404 0-13.476-2.912-17.721-7.849v30.853h-14.86v.05zM361.202 53.56c0-9.872-7.158-16.783-15.945-16.783-8.787 0-15.944 7.059-15.944 16.784 0 9.626 7.157 16.784 15.944 16.784s15.945-6.911 15.945-16.784m.148 29.322v-7.602c-4.344 5.282-10.81 8.54-18.512 8.54-16.092 0-28.286-12.884-28.286-30.26 0-17.229 12.687-30.36 28.632-30.36 7.503 0 13.822 3.308 18.166 8.442v-7.405h14.415v58.645H361.35z"></path><path d="M221.993 29.964s3.653-6.812 12.687-6.812c3.85 0 6.319 1.333 6.319 1.333v14.957s-5.43-3.356-10.416-2.665c-4.986.69-8.145 5.232-8.145 11.354v34.703H207.53V24.238h14.414v5.726h.05z"></path></g></g></g></g></g></svg>