<svg viewBox="0 0 36 16" version="1.1" xmlns="http://www.w3.org/2000/svg" class="sc-icVmZf iNHZPF"><title>klarna</title><g id="Symbols" stroke="none" stroke-width="1" fill="none" fill-rule="evenodd"><g id="Components/Footer/Default/BP4" transform="translate(-1064.000000, -611.000000)" fill-rule="nonzero"><g id="Payment-Icons" transform="translate(812.000000, 611.000000)"><g id="klarna" transform="translate(252.000000, 0.000000)"><rect id="Rectangle-path" fill="#FFB3C7" x="0" y="0" width="36" height="16" rx="2.4"></rect><path d="M32.2028258,9.44305431 C31.7625891,9.44305431 31.4057263,9.78560896 31.4057263,10.2082149 C31.4057263,10.6307355 31.7625891,10.9733755 32.2028258,10.9733755 C32.643055,10.9733755 33,10.6307568 33,10.2082149 C33,9.78558051 32.6430699,9.44305431 32.2028258,9.44305431 Z M29.5802489,8.8514828 C29.5802489,8.27291412 29.0650729,7.80400163 28.4295394,7.80400163 C27.7940059,7.80400163 27.2787551,8.27293546 27.2787551,8.8514828 C27.2787551,9.4300586 27.7939386,9.89910624 28.4295394,9.89910624 C29.0651402,9.89910624 29.5802489,9.4300586 29.5802489,8.8514828 Z M29.5845222,6.81555952 L30.8544975,6.81555952 L30.8544975,10.8872638 L29.5845222,10.8872638 L29.5845222,10.6270367 C29.2257377,10.8619126 28.792657,10.9999858 28.3255387,10.9999858 C27.0894364,10.9999858 26.0873044,10.0380757 26.0873044,8.85146146 C26.0873044,7.66484724 27.0894364,6.70300829 28.3255387,6.70300829 C28.792657,6.70300829 29.2257526,6.84107436 29.5845222,7.07602141 L29.5845222,6.81554529 L29.5845222,6.81555952 Z M19.4211303,7.34592956 L19.4211303,6.81561642 L18.1208712,6.81561642 L18.1208712,10.8872496 L19.4240465,10.8872496 L19.4240465,8.9862626 C19.4240465,8.344892 20.1482331,8.00016783 20.6507272,8.00016783 C20.6558731,8.00016783 20.6606768,8.00064279 20.6658228,8.00070324 L20.6658228,6.81593844 C20.1500785,6.81593844 19.6757295,7.02791005 19.4211213,7.34600972 L19.4211303,7.34592956 Z M16.1821847,8.85149703 C16.1821847,8.27292835 15.6669489,7.80401585 15.0314004,7.80401585 C14.3958819,7.80401585 13.8806161,8.27294969 13.8806161,8.85149703 C13.8806161,9.43007282 14.395852,9.89912047 15.0314004,9.89912047 C15.6669713,9.89912047 16.1821847,9.43007282 16.1821847,8.85149703 Z M16.186386,6.81557375 L17.4564361,6.81557375 L17.4564361,10.8872781 L16.186386,10.8872781 L16.186386,10.6270509 C15.8276015,10.8619268 15.3945208,11 14.9274774,11 C13.6913002,11 12.6891683,10.0380899 12.6891683,8.85147569 C12.6891683,7.66486147 13.6913002,6.70302251 14.9274774,6.70302251 C15.3945507,6.70302251 15.8276165,6.84108858 16.186386,7.07603564 L16.186386,6.81555952 L16.186386,6.81557375 Z M23.8306146,6.70605982 C23.3232975,6.70605982 22.8431385,6.85724964 22.5221303,7.27436424 L22.5221303,6.81581559 L21.2576135,6.81581559 L21.2576135,10.8873065 L22.5376834,10.8873065 L22.5376834,8.74760249 C22.5376834,8.128432 22.9702332,7.82524147 23.4910622,7.82524147 C24.0492262,7.82524147 24.3701149,8.14530437 24.3701149,8.73920898 L24.3701149,10.8873065 L25.6385947,10.8873065 L25.6385947,8.29805196 C25.6385947,7.35051042 24.8537583,6.70613096 23.8306146,6.70613096 L23.8306146,6.70605982 Z M10.8392395,10.8873065 L12.1685113,10.8873065 L12.1685113,5.001111 L10.8392395,5.001111 L10.8392395,10.8873065 L10.8392395,10.8873065 Z M5,10.8889127 L6.40756098,10.8889127 L6.40756098,5.00001423 L5,5.00001423 L5,10.8889127 Z M9.92317334,5 C9.92317334,6.27490253 9.4055896,7.46087657 8.48330965,8.34240816 L10.4289501,10.8891261 L8.69043586,10.8891261 L6.57595385,8.12140286 L7.12166787,7.7290989 C8.02666737,7.07836028 8.54575409,6.08368707 8.54575409,5 L9.92318082,5 L9.92317334,5 Z" id="Shape" fill="#0A0B09"></path></g></g></g></g></svg>